<?xml version="1.0" standalone="no"?>
<!DOCTYPE svg PUBLIC "-//W3C//DTD SVG 20010904//EN"
 "http://www.w3.org/TR/2001/REC-SVG-20010904/DTD/svg10.dtd">
<svg version="1.0" xmlns="http://www.w3.org/2000/svg"
 width="1563.000000pt" height="1563.000000pt" viewBox="0 0 1563.000000 1563.000000"
 preserveAspectRatio="xMidYMid meet">
<metadata>
Created by potrace 1.14, written by Peter Selinger 2001-2017
</metadata>
<g transform="translate(0.000000,1563.000000) scale(0.100000,-0.100000)"
fill="#000000" stroke="none">
<path d="M7828 14105 c-2 -1 -93 -5 -203 -8 -110 -4 -211 -9 -225 -11 -14 -3
-59 -7 -102 -10 -42 -3 -91 -8 -110 -11 -18 -2 -51 -7 -73 -9 -43 -6 -99 -13
-155 -21 -19 -3 -71 -12 -115 -20 -44 -8 -98 -17 -120 -20 -22 -4 -67 -13
-100 -22 -33 -8 -71 -17 -85 -20 -237 -42 -744 -215 -1070 -363 -122 -55 -431
-211 -455 -230 -5 -4 -37 -22 -70 -40 -74 -40 -334 -206 -394 -252 -25 -18
-70 -51 -100 -72 -76 -53 -283 -220 -411 -330 -437 -379 -877 -920 -1172
-1441 -25 -44 -56 -98 -68 -120 -134 -237 -338 -714 -409 -955 -12 -41 -26
-84 -31 -95 -47 -99 -184 -743 -205 -965 -3 -36 -8 -72 -10 -80 -5 -21 -13
-106 -22 -235 -10 -135 -10 -691 0 -800 17 -188 29 -301 42 -375 1 -8 6 -41
10 -74 8 -67 14 -105 20 -126 3 -8 7 -33 11 -55 3 -22 13 -71 21 -110 8 -38
19 -88 23 -110 15 -70 47 -197 75 -295 210 -735 554 -1406 1024 -2000 114
-144 131 -164 226 -268 63 -68 79 -92 82 -117 9 -64 28 -138 50 -191 l24 -62
-41 -68 c-22 -38 -45 -76 -50 -84 -60 -97 -145 -248 -163 -291 -76 -172 -82
-372 -15 -555 31 -87 105 -211 152 -253 14 -14 26 -30 26 -36 0 -6 -20 -44
-45 -84 -25 -40 -45 -75 -45 -77 0 -2 -11 -21 -23 -42 -103 -162 -139 -272
-143 -432 -4 -146 12 -223 76 -356 41 -85 63 -115 132 -186 46 -47 106 -99
133 -115 129 -78 345 -203 392 -227 223 -112 515 -89 738 58 114 76 227 221
347 446 38 71 47 79 81 69 97 -28 223 -31 342 -8 153 31 311 123 413 243 39
45 261 405 262 424 1 24 41 50 86 56 94 13 184 41 264 81 39 20 54 22 81 15
19 -5 50 -11 69 -14 63 -9 165 -26 186 -30 12 -2 45 -7 75 -11 30 -3 65 -8 79
-10 14 -2 59 -7 100 -10 41 -4 91 -8 110 -10 265 -25 750 -25 955 0 17 2 64 7
106 10 41 3 86 7 98 10 13 2 49 7 80 11 47 5 252 38 366 59 17 3 84 19 151 35
66 16 131 31 145 34 13 3 49 12 79 21 30 9 80 23 110 31 149 41 511 172 650
236 25 11 83 37 130 58 148 65 423 210 575 303 118 73 449 300 513 352 9 8 58
47 107 86 193 155 453 397 618 577 145 156 362 424 452 556 12 17 46 67 77
111 178 258 383 633 513 936 54 126 173 435 179 464 1 6 19 64 40 129 21 66
39 127 41 135 2 9 13 54 25 101 12 47 24 92 26 100 2 8 10 43 18 77 9 34 18
77 21 95 3 18 8 40 10 48 6 21 54 301 60 353 2 23 7 65 10 92 4 28 8 66 11 85
2 19 6 60 8 90 3 30 8 98 12 150 10 124 10 546 1 680 -10 140 -15 203 -22 275
-14 128 -33 266 -52 365 -8 47 -17 96 -20 110 -2 14 -11 57 -19 95 -8 39 -17
80 -20 93 -29 143 -107 416 -173 606 -440 1270 -1311 2341 -2466 3033 -166
100 -513 281 -615 322 -33 13 -67 28 -162 70 -175 76 -604 214 -831 266 -10 2
-26 6 -35 9 -9 3 -33 8 -52 11 -19 3 -73 14 -120 25 -47 10 -107 21 -135 25
-27 3 -57 8 -65 10 -21 6 -60 12 -160 25 -47 6 -98 12 -115 15 -125 16 -223
23 -435 30 -96 3 -183 8 -192 9 -9 2 -18 3 -20 1z"/>
</g>
</svg>
